<svg width="20" height="26" viewBox="0 0 20 26" fill="none" xmlns="http://www.w3.org/2000/svg">
<mask id="path-1-inside-1_395_23650" fill="white">
<path d="M20.0007 19.0064V2C20.0001 1.46975 19.7892 0.961398 19.4143 0.586456C19.0393 0.211515 18.531 0.000606423 18.0007 0H2.00075C1.4705 0.000606423 0.962144 0.211515 0.587203 0.586456C0.212261 0.961398 0.00135273 1.46975 0.000746311 2V19.0067C0.000746311 19.0088 0.000715061 19.0108 0.000746311 19.0129V25C0.00074494 25.1741 0.046218 25.3453 0.132665 25.4964C0.219112 25.6476 0.343537 25.7736 0.493624 25.8619C0.643711 25.9502 0.814256 25.9978 0.988383 25.9999C1.16251 26.0021 1.33418 25.9587 1.4864 25.8741L9.99989 21.1439L18.5151 25.8741C18.6674 25.9587 18.839 26.002 19.0131 25.9999C19.1873 25.9977 19.3578 25.9501 19.5079 25.8618C19.6579 25.7735 19.7824 25.6476 19.8688 25.4964C19.9553 25.3452 20.0007 25.1741 20.0007 25V19.0129C20.0008 19.0108 20.0007 19.0086 20.0007 19.0064ZM10.4854 19.1259C10.3369 19.0433 10.1697 19 9.9998 19C9.82986 19 9.66272 19.0433 9.51418 19.1259L2.00075 23.3004V19.5884L9.99989 15.1439L18.0007 19.5884V23.3005L10.4854 19.1259Z"/>
</mask>
<path d="M20.0007 19.0064V2C20.0001 1.46975 19.7892 0.961398 19.4143 0.586456C19.0393 0.211515 18.531 0.000606423 18.0007 0H2.00075C1.4705 0.000606423 0.962144 0.211515 0.587203 0.586456C0.212261 0.961398 0.00135273 1.46975 0.000746311 2V19.0067C0.000746311 19.0088 0.000715061 19.0108 0.000746311 19.0129V25C0.00074494 25.1741 0.046218 25.3453 0.132665 25.4964C0.219112 25.6476 0.343537 25.7736 0.493624 25.8619C0.643711 25.9502 0.814256 25.9978 0.988383 25.9999C1.16251 26.0021 1.33418 25.9587 1.4864 25.8741L9.99989 21.1439L18.5151 25.8741C18.6674 25.9587 18.839 26.002 19.0131 25.9999C19.1873 25.9977 19.3578 25.9501 19.5079 25.8618C19.6579 25.7735 19.7824 25.6476 19.8688 25.4964C19.9553 25.3452 20.0007 25.1741 20.0007 25V19.0129C20.0008 19.0108 20.0007 19.0086 20.0007 19.0064ZM10.4854 19.1259C10.3369 19.0433 10.1697 19 9.9998 19C9.82986 19 9.66272 19.0433 9.51418 19.1259L2.00075 23.3004V19.5884L9.99989 15.1439L18.0007 19.5884V23.3005L10.4854 19.1259Z" fill="#18a0cb"/>
<path d="M20.0007 19.0064L22.0007 19.0201V19.0064H20.0007ZM20.0007 2H22.0007L22.0007 1.99771L20.0007 2ZM18.0007 0L18.003 -2H18.0007V0ZM2.00075 0V-2L1.99846 -2L2.00075 0ZM0.000746311 2L-1.99925 1.99771V2H0.000746311ZM0.000746311 19.0129H2.00075V18.9979L2.00052 18.9829L0.000746311 19.0129ZM0.000746311 25L2.00075 25V25H0.000746311ZM1.4864 25.8741L2.45774 27.6224L2.45777 27.6224L1.4864 25.8741ZM9.99989 21.1439L10.9711 19.3956L9.99979 18.856L9.02852 19.3957L9.99989 21.1439ZM18.5151 25.8741L17.5439 27.6225L17.544 27.6225L18.5151 25.8741ZM20.0007 25L22.0007 25.0001V25H20.0007ZM20.0007 19.0129L18.0009 18.9855L18.0007 18.9992V19.0129H20.0007ZM10.4854 19.1259L9.51403 20.8741L9.51423 20.8742L10.4854 19.1259ZM9.9998 19V17V19ZM9.51418 19.1259L10.4855 20.8741L10.4856 20.8741L9.51418 19.1259ZM2.00075 23.3004H0.000746012V26.6996L2.97211 25.0487L2.00075 23.3004ZM2.00075 19.5884L1.02938 17.8401L0.000746012 18.4116V19.5884H2.00075ZM9.99989 15.1439L10.9711 13.3956L9.99979 12.856L9.02852 13.3957L9.99989 15.1439ZM18.0007 19.5884H20.0007V18.4115L18.972 17.84L18.0007 19.5884ZM18.0007 23.3005L17.0295 25.0489L20.0007 26.6994V23.3005H18.0007ZM22.0007 19.0064V2H18.0007V19.0064H22.0007ZM22.0007 1.99771C21.9995 0.937826 21.578 -0.0783037 20.8285 -0.827757L18.0001 2.00067C18.0005 2.0011 18.0007 2.00168 18.0007 2.00229L22.0007 1.99771ZM20.8285 -0.827757C20.079 -1.57721 19.0629 -1.99879 18.003 -2L17.9985 2C17.9991 2 17.9996 2.00024 18.0001 2.00067L20.8285 -0.827757ZM18.0007 -2H2.00075V2H18.0007V-2ZM1.99846 -2C0.938571 -1.99879 -0.0775577 -1.57721 -0.827011 -0.827757L2.00142 2.00067C2.00185 2.00024 2.00243 2 2.00303 2L1.99846 -2ZM-0.827011 -0.827757C-1.57646 -0.0783037 -1.99804 0.937826 -1.99925 1.99771L2.00075 2.00229C2.00075 2.00168 2.00099 2.0011 2.00142 2.00067L-0.827011 -0.827757ZM-1.99925 2V19.0067H2.00075V2H-1.99925ZM-1.99925 19.0067C-1.99925 19.0025 -1.99924 18.9993 -1.99924 18.9988C-1.99924 18.9988 -1.99923 18.9982 -1.99924 18.9991C-1.99924 18.9996 -1.99925 19.0008 -1.99925 19.0022C-1.99927 19.0072 -1.99933 19.023 -1.99903 19.0429L2.00052 18.9829C2.00066 18.9922 2.00071 19 2.00073 19.0057C2.00074 19.0112 2.00073 19.0155 2.00072 19.0173C2.00072 19.0178 2.00072 19.0182 2.00072 19.0185C2.00071 19.0187 2.00071 19.0189 2.00071 19.0189C2.00071 19.0193 2.00072 19.0182 2.00072 19.0176C2.00073 19.0161 2.00075 19.0119 2.00075 19.0067H-1.99925ZM-1.99925 19.0129V25H2.00075V19.0129H-1.99925ZM-1.99925 25C-1.99926 25.5224 -1.86284 26.0358 -1.60349 26.4893L1.86883 24.5036C1.95527 24.6547 2.00075 24.8259 2.00075 25L-1.99925 25ZM-1.60349 26.4893C-1.34415 26.9428 -0.97088 27.3207 -0.520615 27.5856L1.50786 24.1381C1.65795 24.2264 1.78238 24.3524 1.86883 24.5036L-1.60349 26.4893ZM-0.520615 27.5856C-0.0703501 27.8506 0.441291 27.9933 0.963671 27.9998L1.01309 24.0001C1.18722 24.0022 1.35777 24.0498 1.50786 24.1381L-0.520615 27.5856ZM0.963671 27.9998C1.48605 28.0062 2.00106 27.8762 2.45774 27.6224L0.515068 24.1259C0.667299 24.0413 0.838972 23.9979 1.01309 24.0001L0.963671 27.9998ZM2.45777 27.6224L10.9713 22.8922L9.02852 19.3957L0.515037 24.1259L2.45777 27.6224ZM9.02868 22.8923L17.5439 27.6225L19.4864 24.1258L10.9711 19.3956L9.02868 22.8923ZM17.544 27.6225C18.0006 27.8762 18.5156 28.0062 19.038 27.9997L18.9883 24C19.1624 23.9979 19.3341 24.0412 19.4863 24.1258L17.544 27.6225ZM19.038 27.9997C19.5603 27.9932 20.0719 27.8505 20.5221 27.5856L18.4936 24.1381C18.6437 24.0498 18.8142 24.0022 18.9883 24L19.038 27.9997ZM20.5221 27.5856C20.9724 27.3206 21.3456 26.9427 21.605 26.4893L18.1327 24.5035C18.2191 24.3524 18.3435 24.2264 18.4936 24.1381L20.5221 27.5856ZM21.605 26.4893C21.8643 26.0358 22.0007 25.5225 22.0007 25.0001L18.0007 24.9999C18.0008 24.8258 18.0462 24.6547 18.1327 24.5035L21.605 26.4893ZM22.0007 25V19.0129H18.0007V25H22.0007ZM22.0006 19.0404C22.0007 19.0286 22.0008 19.0188 22.0008 19.0122C22.0008 19.0058 22.0007 19.0006 22.0007 18.9994C22.0007 18.999 22.0007 18.9986 22.0007 18.9986C22.0007 18.9984 22.0007 18.9986 22.0007 18.9988C22.0007 18.9991 22.0007 19.0004 22.0007 19.002C22.0007 19.0052 22.0008 19.0118 22.0007 19.0201L18.0008 18.9926C18.0007 19.0021 18.0007 19.0097 18.0007 19.014C18.0008 19.0162 18.0008 19.018 18.0008 19.0189C18.0008 19.0194 18.0008 19.0198 18.0008 19.0199C18.0008 19.0202 18.0008 19.0201 18.0008 19.02C18.0008 19.0198 18.0008 19.0158 18.0008 19.0104C18.0008 19.0049 18.0008 18.9962 18.0009 18.9855L22.0006 19.0404ZM11.4568 17.3776C11.0111 17.13 10.5097 17 9.9998 17V21C9.82981 21 9.66262 20.9567 9.51403 20.8741L11.4568 17.3776ZM9.9998 17C9.48993 17 8.98847 17.13 8.54278 17.3776L10.4856 20.8741C10.337 20.9567 10.1698 21 9.9998 21V17ZM8.54281 17.3776L1.02938 21.5521L2.97211 25.0487L10.4855 20.8741L8.54281 17.3776ZM4.00075 23.3004V19.5884H0.000746012V23.3004H4.00075ZM2.97211 21.3366L10.9713 16.8922L9.02852 13.3957L1.02938 17.8401L2.97211 21.3366ZM9.02868 16.8923L17.0295 21.3368L18.972 17.84L10.9711 13.3956L9.02868 16.8923ZM16.0007 19.5884V23.3005H20.0007V19.5884H16.0007ZM18.9719 21.5522L11.4566 17.3775L9.51423 20.8742L17.0295 25.0489L18.9719 21.5522Z" fill="#18a0cb" mask="url(#path-1-inside-1_395_23650)"/>
</svg>
