<svg viewBox="0 0 512 512" preserveAspectRatio="xMinYMin slice" xmlns="http://www.w3.org/2000/svg">
 <!--! Font Awesome Pro 6.2.0 by @fontawesome - https://fontawesome.com License - https://fontawesome.com/license (Commercial License) Copyright 2022 Fonticons, Inc. -->

 <g>
  <title>background</title>
  <rect fill="none" id="canvas_background" height="402" width="582" y="-1" x="-1"/>
 </g>
 <g>
  <title>Layer 1</title>
  <path stroke="null" id="svg_1" d="m375.300481,22.40686c28.198595,-28.264974 73.958594,-28.264974 102.157189,0l12.142456,12.183785c28.198595,28.26799 28.198595,74.097921 0,102.345805l-197.891923,198.33835c-8.730526,8.64526 -19.468069,14.978416 -31.309473,18.396309l-100.350874,28.750516c-8.429473,2.412631 -17.461052,0 -23.682806,-7.03684c-6.121403,-5.327893 -8.529824,-14.375258 -6.121403,-22.819465l28.70035,-100.52628c3.41193,-11.862101 9.734035,-22.618413 18.36421,-31.364199l197.992273,-198.267981zm67.235085,34.118619c-8.529824,-9.419312 -23.783157,-9.419312 -33.216139,0l-29.202104,29.243095l46.261753,46.342615l29.202104,-30.157884c9.432982,-8.544734 9.432982,-23.824728 0,-33.244041l-13.045614,-12.183785zm-237.229465,208.78303l-16.858947,58.807874l58.705261,-16.888415c4.014035,-1.105789 7.526316,-3.216841 10.436491,-6.132103l134.771223,-134.906267l-46.261753,-46.342615l-134.670872,135.006794c-2.910175,2.915262 -5.017544,6.433682 -6.121403,10.454733zm-3.712982,-203.666243c13.346666,0 24.08421,10.806575 24.08421,24.126307c0,13.369995 -10.737543,24.126307 -24.08421,24.126307l-112.392978,0c-22.167508,0 -40.140349,17.994204 -40.140349,40.210512l0,273.431481c0,22.216308 17.972841,40.210512 40.140349,40.210512l272.954376,0c22.177543,0 40.140349,-17.994204 40.140349,-40.210512l0,-112.589433c0,-13.369995 10.737543,-24.126307 24.08421,-24.126307c13.346666,0 24.08421,10.756312 24.08421,24.126307l0,112.589433c0,48.855772 -39.538244,88.463126 -88.308769,88.463126l-272.954376,0c-48.770525,0 -88.308769,-39.607354 -88.308769,-88.463126l0,-273.431481c0,-48.855772 39.538244,-88.463126 88.308769,-88.463126l112.392978,0z"/>
 </g>
</svg>