<svg width="16" height="16" viewBox="0 0 16 16" fill="none" xmlns="http://www.w3.org/2000/svg">
<path d="M8 1.5C6.71442 1.5 5.45772 1.88122 4.3888 2.59545C3.31988 3.30968 2.48676 4.32484 1.99479 5.51256C1.50282 6.70028 1.37409 8.00721 1.6249 9.26809C1.8757 10.529 2.49477 11.6872 3.40381 12.5962C4.31285 13.5052 5.47104 14.1243 6.73192 14.3751C7.99279 14.6259 9.29973 14.4972 10.4874 14.0052C11.6752 13.5132 12.6903 12.6801 13.4046 11.6112C14.1188 10.5423 14.5 9.28558 14.5 8C14.498 6.2767 13.8126 4.62456 12.594 3.40601C11.3754 2.18745 9.7233 1.50199 8 1.5ZM7.99994 4.5C8.14828 4.5 8.29328 4.54399 8.41662 4.6264C8.53995 4.70881 8.63609 4.82594 8.69285 4.96299C8.74962 5.10003 8.76447 5.25083 8.73553 5.39632C8.70659 5.5418 8.63516 5.67544 8.53027 5.78033C8.42538 5.88522 8.29174 5.95665 8.14626 5.98559C8.00077 6.01453 7.84997 5.99968 7.71293 5.94291C7.57588 5.88614 7.45875 5.79001 7.37634 5.66668C7.29393 5.54334 7.24994 5.39834 7.24994 5.25C7.24994 5.15151 7.26934 5.05398 7.30703 4.96299C7.34472 4.87199 7.39997 4.78931 7.46961 4.71967C7.53926 4.65003 7.62193 4.59478 7.71293 4.55709C7.80392 4.5194 7.90145 4.5 7.99994 4.5H7.99994ZM8.5 11.5H8C7.93433 11.5 7.8693 11.4871 7.80862 11.462C7.74794 11.4369 7.6928 11.4001 7.64637 11.3536C7.59993 11.3072 7.5631 11.2521 7.53799 11.1914C7.51287 11.1307 7.49997 11.0657 7.5 11V8C7.36739 8 7.24022 7.94732 7.14645 7.85355C7.05268 7.75979 7 7.63261 7 7.5C7 7.36739 7.05268 7.24021 7.14645 7.14645C7.24022 7.05268 7.36739 7 7.5 7H8C8.06567 6.99996 8.13071 7.01287 8.19139 7.03798C8.25207 7.0631 8.3072 7.09993 8.35364 7.14636C8.40008 7.1928 8.43691 7.24793 8.46202 7.30861C8.48713 7.36929 8.50004 7.43433 8.5 7.5V10.5C8.63261 10.5 8.75979 10.5527 8.85356 10.6464C8.94732 10.7402 9 10.8674 9 11C9 11.1326 8.94732 11.2598 8.85356 11.3536C8.75979 11.4473 8.63261 11.5 8.5 11.5Z" fill="#DC3545"/>
</svg>
