<svg width="24" height="25" viewBox="0 0 24 25" fill="none" xmlns="http://www.w3.org/2000/svg">
<path d="M8.66965 12.4514C9.44762 14.0419 10.7369 15.3253 12.3309 16.096C12.4475 16.1513 12.5765 16.1752 12.7052 16.1655C12.8339 16.1558 12.9579 16.1127 13.0648 16.0405L15.4119 14.4754C15.5157 14.4062 15.6352 14.3639 15.7594 14.3525C15.8837 14.3411 16.0088 14.3609 16.1235 14.41L20.5144 16.2919C20.6636 16.3552 20.7881 16.4654 20.8693 16.6056C20.9504 16.7459 20.9838 16.9088 20.9643 17.0697C20.8255 18.1557 20.2956 19.1539 19.4739 19.8773C18.6521 20.6008 17.5948 20.9999 16.5 21C13.1185 21 9.87548 19.6567 7.48439 17.2656C5.0933 14.8745 3.75 11.6315 3.75 8.24997C3.75006 7.15513 4.14918 6.09786 4.87264 5.2761C5.5961 4.45435 6.59428 3.92448 7.68028 3.78569C7.84117 3.76622 8.00403 3.79956 8.14432 3.8807C8.28461 3.96183 8.39473 4.08636 8.4581 4.23552L10.3416 8.63032C10.3903 8.744 10.4101 8.86796 10.3994 8.99116C10.3886 9.11436 10.3475 9.23299 10.2798 9.33647L8.72011 11.7196C8.64912 11.8268 8.60716 11.9506 8.59831 12.0788C8.58947 12.2071 8.61405 12.3355 8.66965 12.4514V12.4514Z" stroke="#AAB0B2" stroke-width="2" stroke-linecap="round" stroke-linejoin="round"/>
</svg>
