<svg viewBox="0 0 30 30" preserveAspectRatio="xMinYMin slice" xmlns="http://www.w3.org/2000/svg">
 <!--! Font Awesome Pro 6.2.0 by @fontawesome - https://fontawesome.com License - https://fontawesome.com/license (Commercial License) Copyright 2022 Fonticons, Inc. -->

 <g>
  <title>background</title>
  <rect fill="none" id="canvas_background" height="32" width="32" y="-1" x="-1"/>
 </g>
 <g>
  <title>Layer 1</title>
  <path stroke="null" id="svg_1" d="m6.824298,25.158537c-3.693001,0 -6.68921,-2.925114 -6.68921,-6.530487c0,-2.848018 1.867405,-5.26974 4.468764,-6.163147c-0.004645,-0.122447 -0.009291,-0.244893 -0.009291,-0.36734c0,-4.008994 3.326024,-7.256097 7.432456,-7.256097c2.754654,0 5.156266,1.46029 6.44301,3.637119c0.706083,-0.462576 1.560816,-0.73468 2.475937,-0.73468c2.462001,0 4.459473,1.950076 4.459473,4.353658c0,0.553277 -0.106842,1.079344 -0.297298,1.569131c2.712846,0.535137 4.756772,2.879763 4.756772,5.686966c0,3.206288 -2.661748,5.804878 -5.945965,5.804878l-17.094648,0zm3.669775,-7.573551l3.716228,3.628048c0.436657,0.426296 1.14274,0.426296 1.574752,0l3.716228,-3.628048c0.436657,-0.426296 0.436657,-1.115625 0,-1.537386s-1.14274,-0.426296 -1.574752,0l-1.811661,1.768674l0,-6.081516c0,-0.603163 -0.497045,-1.088415 -1.114868,-1.088415s-1.114868,0.485251 -1.114868,1.088415l0,6.081516l-1.811661,-1.768674c-0.436657,-0.426296 -1.14274,-0.426296 -1.574752,0s-0.436657,1.115625 0,1.537386l-0.004645,0z"/>
 </g>
</svg>