<svg width="16" height="15" viewBox="0 0 16 15" fill="none" xmlns="http://www.w3.org/2000/svg">
<path fill-rule="evenodd" clip-rule="evenodd" d="M0.585786 1.08579C0.960859 0.710714 1.46957 0.5 2 0.5H14C14.5304 0.5 15.0391 0.710714 15.4142 1.08579C15.7893 1.46086 16 1.96957 16 2.5V7C16 7.13261 15.9473 7.25979 15.8536 7.35355C15.7598 7.44732 15.6326 7.5 15.5 7.5C15.3674 7.5 15.2402 7.44732 15.1464 7.35355C15.0527 7.25979 15 7.13261 15 7V3.883L8 8.083L6.674 7.288L1.034 10.759C1.09101 10.9716 1.21658 11.1595 1.39124 11.2934C1.5659 11.4274 1.77988 11.5 2 11.5H7.5C7.63261 11.5 7.75979 11.5527 7.85355 11.6464C7.94732 11.7402 8 11.8674 8 12C8 12.1326 7.94732 12.2598 7.85355 12.3536C7.75979 12.4473 7.63261 12.5 7.5 12.5H2C1.4713 12.5 0.964097 12.2907 0.58931 11.9178C0.214524 11.5448 0.00264352 11.0387 0 10.51V2.5C0 1.96957 0.210714 1.46086 0.585786 1.08579ZM1 9.605L5.708 6.708L1 3.883V9.605ZM1 2.5V2.717L8 6.917L15 2.717V2.5C15 2.23478 14.8946 1.98043 14.7071 1.79289C14.5196 1.60536 14.2652 1.5 14 1.5H2C1.73478 1.5 1.48043 1.60536 1.29289 1.79289C1.10536 1.98043 1 2.23478 1 2.5Z" fill="white"/>
<path fill-rule="evenodd" clip-rule="evenodd" d="M14.9749 13.4749C14.3185 14.1313 13.4283 14.5 12.5 14.5C11.5717 14.5 10.6815 14.1313 10.0251 13.4749C9.36875 12.8185 9 11.9283 9 11C9 10.0717 9.36875 9.1815 10.0251 8.52513C10.6815 7.86875 11.5717 7.5 12.5 7.5C13.4283 7.5 14.3185 7.86875 14.9749 8.52513C15.6313 9.1815 16 10.0717 16 11C16 11.9283 15.6313 12.8185 14.9749 13.4749ZM13 11V9.5C13 9.36739 12.9473 9.24021 12.8536 9.14645C12.7598 9.05268 12.6326 9 12.5 9C12.3674 9 12.2402 9.05268 12.1464 9.14645C12.0527 9.24021 12 9.36739 12 9.5V11C12 11.1326 12.0527 11.2598 12.1464 11.3536C12.2402 11.4473 12.3674 11.5 12.5 11.5C12.6326 11.5 12.7598 11.4473 12.8536 11.3536C12.9473 11.2598 13 11.1326 13 11ZM12.8536 12.8536C12.9473 12.7598 13 12.6326 13 12.5C13 12.3674 12.9473 12.2402 12.8536 12.1464C12.7598 12.0527 12.6326 12 12.5 12C12.3674 12 12.2402 12.0527 12.1464 12.1464C12.0527 12.2402 12 12.3674 12 12.5C12 12.6326 12.0527 12.7598 12.1464 12.8536C12.2402 12.9473 12.3674 13 12.5 13C12.6326 13 12.7598 12.9473 12.8536 12.8536Z" fill="white"/>
</svg>
