<svg width="390" height="844" viewBox="0 0 390 844" fill="none" xmlns="http://www.w3.org/2000/svg">
<g clip-path="url(#clip0_1156_85849)">
<rect width="390" height="844" fill="white"/>
<g opacity="0.2">
<rect x="11.1133" y="155.817" width="30.3258" height="30.3258" transform="rotate(-45 11.1133 155.817)" fill="#18a0cb"/>
<rect x="11.1133" y="102.444" width="30.3258" height="30.3258" transform="rotate(-45 11.1133 102.444)" fill="#ebf5f9"/>
<rect x="-18" y="129.13" width="30.3258" height="30.3258" transform="rotate(-45 -18 129.13)" fill="#ebf5f9"/>
</g>
<g opacity="0.4">
<rect x="373" y="221.678" width="25" height="25" transform="rotate(-45 373 221.678)" fill="#18a0cb"/>
<rect x="373" y="177.678" width="25" height="25" transform="rotate(-45 373 177.678)" fill="#ebf5f9"/>
<rect x="349" y="199.678" width="25" height="25" transform="rotate(-45 349 199.678)" fill="#ebf5f9"/>
</g>
<g opacity="0.4">
<rect x="17.3555" y="653.677" width="25" height="25" transform="rotate(135 17.3555 653.677)" fill="#18a0cb"/>
<rect x="17.3555" y="697.677" width="25" height="25" transform="rotate(135 17.3555 697.677)" fill="#ebf5f9"/>
<rect x="41.3555" y="675.677" width="25" height="25" transform="rotate(135 41.3555 675.677)" fill="#ebf5f9"/>
</g>
<g opacity="0.2">
<rect width="25" height="25" transform="matrix(0.707107 0.707107 0.707107 -0.707107 348 693.677)" fill="#18a0cb"/>
<rect width="25" height="25" transform="matrix(0.707107 0.707107 0.707107 -0.707107 348 737.677)" fill="#ebf5f9"/>
<rect width="25" height="25" transform="matrix(0.707107 0.707107 0.707107 -0.707107 324 715.677)" fill="#ebf5f9"/>
</g>
<rect x="129" y="831" width="134" height="5" rx="2.5" fill="white"/>
</g>
<defs>
<clipPath id="clip0_1156_85849">
<rect width="390" height="844" fill="white"/>
</clipPath>
</defs>
</svg>
