<svg width="24" height="24" viewBox="0 0 24 24" fill="none" xmlns="http://www.w3.org/2000/svg">
<path fill-rule="evenodd" clip-rule="evenodd" d="M8.15901 0.65901C8.58097 0.237053 9.15326 0 9.75 0H14.25C14.8467 0 15.419 0.237053 15.841 0.65901C16.2629 1.08097 16.5 1.65326 16.5 2.25V3.75C16.5 4.34674 16.2629 4.91903 15.841 5.34099C15.419 5.76295 14.8467 6 14.25 6H9.75C9.15326 6 8.58097 5.76295 8.15901 5.34099C7.73705 4.91903 7.5 4.34674 7.5 3.75V2.25C7.5 1.65326 7.73705 1.08097 8.15901 0.65901ZM14.7803 1.71967C14.6397 1.57902 14.4489 1.5 14.25 1.5H9.75C9.55109 1.5 9.36032 1.57902 9.21967 1.71967C9.07902 1.86032 9 2.05109 9 2.25V3.75C9 3.94891 9.07902 4.13968 9.21967 4.28033C9.36032 4.42098 9.55109 4.5 9.75 4.5H14.25C14.4489 4.5 14.6397 4.42098 14.7803 4.28033C14.921 4.13968 15 3.94891 15 3.75V2.25C15 2.05109 14.921 1.86032 14.7803 1.71967Z" fill="#7873E5"/>
<path fill-rule="evenodd" clip-rule="evenodd" d="M4.5 2.25H6V3.75C6 4.74456 6.39509 5.69839 7.09835 6.40165C7.80161 7.10491 8.75544 7.5 9.75 7.5H14.25C14.7425 7.5 15.2301 7.403 15.6851 7.21455C16.14 7.02609 16.5534 6.74987 16.9017 6.40165C17.2499 6.05343 17.5261 5.64003 17.7145 5.18506C17.903 4.73009 18 4.24246 18 3.75V2.25H19.5C20.2956 2.25 21.0587 2.56607 21.6213 3.12868C22.1839 3.69129 22.5 4.45435 22.5 5.25V21C22.5 21.7956 22.1839 22.5587 21.6213 23.1213C21.0587 23.6839 20.2956 24 19.5 24H4.5C3.70435 24 2.94129 23.6839 2.37868 23.1213C1.81607 22.5587 1.5 21.7956 1.5 21V5.25C1.5 4.45435 1.81607 3.69129 2.37868 3.12868C2.94129 2.56607 3.70435 2.25 4.5 2.25ZM12.75 13.5V11.25C12.75 11.0511 12.671 10.8603 12.5303 10.7197C12.3897 10.579 12.1989 10.5 12 10.5C11.8011 10.5 11.6103 10.579 11.4697 10.7197C11.329 10.8603 11.25 11.0511 11.25 11.25V13.5H9C8.80109 13.5 8.61032 13.579 8.46967 13.7197C8.32902 13.8603 8.25 14.0511 8.25 14.25C8.25 14.4489 8.32902 14.6397 8.46967 14.7803C8.61032 14.921 8.80109 15 9 15H11.25V17.25C11.25 17.4489 11.329 17.6397 11.4697 17.7803C11.6103 17.921 11.8011 18 12 18C12.1989 18 12.3897 17.921 12.5303 17.7803C12.671 17.6397 12.75 17.4489 12.75 17.25V15H15C15.1989 15 15.3897 14.921 15.5303 14.7803C15.671 14.6397 15.75 14.4489 15.75 14.25C15.75 14.0511 15.671 13.8603 15.5303 13.7197C15.3897 13.579 15.1989 13.5 15 13.5H12.75Z" fill="#7873E5"/>
</svg>
