<svg width="24" height="24" viewBox="0 0 24 24" fill="none" xmlns="http://www.w3.org/2000/svg">
<path d="M12 13.125C12.6213 13.125 13.125 12.6213 13.125 12C13.125 11.3787 12.6213 10.875 12 10.875C11.3787 10.875 10.875 11.3787 10.875 12C10.875 12.6213 11.3787 13.125 12 13.125Z" fill="#7873E5"/>
<path d="M17.3033 12L19.9017 9.40169C20.2507 9.05366 20.5278 8.64022 20.7169 8.18503C20.9061 7.72983 21.0036 7.24182 21.004 6.74889C21.0043 6.25596 20.9075 5.7678 20.7191 5.31233C20.5306 4.85685 20.2542 4.443 19.9056 4.09445C19.5571 3.7459 19.1432 3.46948 18.6878 3.28102C18.2323 3.09255 17.7441 2.99573 17.2512 2.99609C16.7583 2.99646 16.2703 3.094 15.8151 3.28314C15.3599 3.47229 14.9464 3.74931 14.5984 4.09838L12 6.69674L9.40168 4.09838C9.05346 3.75016 8.64006 3.47394 8.18509 3.28549C7.73012 3.09703 7.24249 3.00004 6.75004 3.00004C6.25758 3.00004 5.76995 3.09703 5.31498 3.28549C4.86001 3.47394 4.44661 3.75016 4.09839 4.09838C3.75017 4.4466 3.47395 4.86 3.2855 5.31497C3.09704 5.76994 3.00005 6.25757 3.00005 6.75002C3.00005 7.24248 3.09704 7.73011 3.2855 8.18508C3.47395 8.64005 3.75017 9.05345 4.09839 9.40167L6.69675 12L4.09839 14.5984C3.74932 14.9464 3.47229 15.3598 3.28315 15.815C3.09401 16.2702 2.99646 16.7582 2.99609 17.2512C2.99573 17.7441 3.09255 18.2322 3.28101 18.6877C3.46947 19.1432 3.74589 19.557 4.09444 19.9056C4.44299 20.2542 4.85684 20.5306 5.31231 20.719C5.76779 20.9075 6.25595 21.0043 6.74887 21.004C7.2418 21.0036 7.72982 20.906 8.18501 20.7169C8.6402 20.5278 9.05364 20.2507 9.40168 19.9017L12 17.3033L14.5984 19.9017C14.9466 20.2499 15.36 20.5261 15.815 20.7146C16.2699 20.903 16.7576 21 17.25 21C17.7425 21 18.2301 20.903 18.6851 20.7146C19.1401 20.5261 19.5535 20.2499 19.9017 19.9017C20.2499 19.5534 20.5261 19.1401 20.7146 18.6851C20.903 18.2301 21 17.7425 21 17.25C21 16.7576 20.903 16.2699 20.7146 15.815C20.5261 15.36 20.2499 14.9466 19.9017 14.5984L17.3033 12ZM12 8.81811L15.182 12L12 15.1819L8.81812 12L12 8.81811ZM15.6591 5.15902C15.868 4.94997 16.1161 4.78412 16.3891 4.67095C16.6621 4.55778 16.9547 4.49951 17.2503 4.49946C17.5458 4.49941 17.8385 4.55759 18.1115 4.67067C18.3846 4.78375 18.6327 4.94951 18.8417 5.1585C19.0506 5.36748 19.2164 5.61559 19.3294 5.88865C19.4425 6.16171 19.5007 6.45437 19.5006 6.74991C19.5005 7.04545 19.4422 7.33808 19.3291 7.61109C19.2159 7.8841 19.05 8.13213 18.8409 8.34103L16.2426 10.9393L13.0607 7.75743L15.6591 5.15902ZM8.34095 18.841C8.13204 19.0501 7.884 19.2159 7.61098 19.3291C7.33797 19.4423 7.04533 19.5005 6.74979 19.5006C6.45425 19.5006 6.1616 19.4425 5.88854 19.3294C5.61549 19.2163 5.36739 19.0505 5.15842 18.8415C4.94945 18.6326 4.78369 18.3845 4.67063 18.1114C4.55756 17.8383 4.4994 17.5457 4.49947 17.2501C4.49953 16.9546 4.55782 16.662 4.67101 16.389C4.78419 16.1159 4.95006 15.8679 5.15912 15.659L7.75744 13.0607L10.9393 16.2426L8.34095 18.841Z" fill="#7873E5"/>
</svg>
