<svg width="24" height="24" viewBox="0 0 24 24" fill="none" xmlns="http://www.w3.org/2000/svg">
<path fill-rule="evenodd" clip-rule="evenodd" d="M12 4.93947L21 13.9395V20.25C21 20.8467 20.7629 21.419 20.341 21.841C19.919 22.2629 19.3467 22.5 18.75 22.5H5.24997C4.65323 22.5 4.08094 22.2629 3.65898 21.841C3.23702 21.419 2.99997 20.8467 2.99997 20.25V13.9395L12 4.93947ZM19.5 3.74997V8.99997L16.5 5.99997V3.74997C16.5 3.55106 16.579 3.36029 16.7196 3.21964C16.8603 3.07899 17.0511 2.99997 17.25 2.99997H18.75C18.9489 2.99997 19.1396 3.07899 19.2803 3.21964C19.421 3.36029 19.5 3.55106 19.5 3.74997Z" fill="#7873E5"/>
<path fill-rule="evenodd" clip-rule="evenodd" d="M10.9395 2.24997C11.2208 1.96876 11.6022 1.81079 12 1.81079C12.3977 1.81079 12.7792 1.96876 13.0605 2.24997L23.031 12.219C23.1718 12.3598 23.2509 12.5508 23.2509 12.75C23.2509 12.9491 23.1718 13.1401 23.031 13.281C22.8901 13.4218 22.6991 13.5009 22.5 13.5009C22.3008 13.5009 22.1098 13.4218 21.969 13.281L12 3.31047L2.03097 13.281C1.89014 13.4218 1.69913 13.5009 1.49997 13.5009C1.30081 13.5009 1.1098 13.4218 0.968971 13.281C0.828141 13.1401 0.749023 12.9491 0.749023 12.75C0.749023 12.5508 0.828141 12.3598 0.968971 12.219L10.9395 2.24997Z" fill="#7873E5"/>
</svg>
