<svg width="15" height="14" viewBox="0 0 15 14" fill="none" xmlns="http://www.w3.org/2000/svg">
<path d="M14.9978 6.99927C14.9978 8.85578 14.2603 10.6363 12.9476 11.949C11.6348 13.2618 9.85432 13.9993 7.9978 13.9993C6.14129 13.9993 4.36081 13.2618 3.04806 11.949C1.7353 10.6363 0.997803 8.85578 0.997803 6.99927C0.997803 5.14275 1.7353 3.36227 3.04806 2.04952C4.36081 0.736766 6.14129 -0.000732422 7.9978 -0.000732422C9.85432 -0.000732422 11.6348 0.736766 12.9476 2.04952C14.2603 3.36227 14.9978 5.14275 14.9978 6.99927ZM5.68255 4.06452C5.6004 3.98237 5.48898 3.93621 5.3728 3.93621C5.25662 3.93621 5.1452 3.98237 5.06305 4.06452C4.9809 4.14667 4.93475 4.25809 4.93475 4.37427C4.93475 4.49045 4.9809 4.60187 5.06305 4.68402L7.37918 6.99927L5.06305 9.31452C5.02238 9.35519 4.99011 9.40349 4.96809 9.45663C4.94608 9.50978 4.93475 9.56674 4.93475 9.62427C4.93475 9.68179 4.94608 9.73876 4.96809 9.7919C4.99011 9.84505 5.02238 9.89334 5.06305 9.93402C5.1452 10.0162 5.25662 10.0623 5.3728 10.0623C5.43033 10.0623 5.48729 10.051 5.54044 10.029C5.59359 10.007 5.64188 9.97469 5.68255 9.93402L7.9978 7.61789L10.3131 9.93402C10.3537 9.97469 10.402 10.007 10.4552 10.029C10.5083 10.051 10.5653 10.0623 10.6228 10.0623C10.6803 10.0623 10.7373 10.051 10.7904 10.029C10.8436 10.007 10.8919 9.97469 10.9326 9.93402C10.9732 9.89334 11.0055 9.84505 11.0275 9.7919C11.0495 9.73876 11.0609 9.68179 11.0609 9.62427C11.0609 9.56674 11.0495 9.50978 11.0275 9.45663C11.0055 9.40349 10.9732 9.35519 10.9326 9.31452L8.61643 6.99927L10.9326 4.68402C10.9732 4.64334 11.0055 4.59505 11.0275 4.5419C11.0495 4.48876 11.0609 4.43179 11.0609 4.37427C11.0609 4.31674 11.0495 4.25978 11.0275 4.20663C11.0055 4.15348 10.9732 4.10519 10.9326 4.06452C10.8919 4.02384 10.8436 3.99157 10.7904 3.96956C10.7373 3.94755 10.6803 3.93621 10.6228 3.93621C10.5653 3.93621 10.5083 3.94755 10.4552 3.96956C10.402 3.99157 10.3537 4.02384 10.3131 4.06452L7.9978 6.38064L5.68255 4.06452Z" fill="#2B3A4B"/>
</svg>
