<svg width="16" height="16" viewBox="0 0 16 16" fill="none" xmlns="http://www.w3.org/2000/svg">
<g clip-path="url(#clip0_395_22418)">
<path d="M13.3585 11.2373C15.0595 9.71926 15.9995 7.99926 15.9995 7.99926C15.9995 7.99926 12.9995 2.49926 7.99951 2.49926C7.0391 2.50257 6.08957 2.70269 5.20951 3.08726L5.97951 3.85826C6.62695 3.62242 7.31046 3.50094 7.99951 3.49926C10.1195 3.49926 11.8785 4.66726 13.1675 5.95626C13.7879 6.57995 14.344 7.26439 14.8275 7.99926C14.7695 8.08626 14.7055 8.18226 14.6325 8.28726C14.2975 8.76726 13.8025 9.40726 13.1675 10.0423C13.0025 10.2073 12.8305 10.3703 12.6505 10.5283L13.3585 11.2373Z" fill="#A5ABB3"/>
<path d="M11.2965 9.17526C11.5197 8.55111 11.561 7.87641 11.4157 7.22968C11.2704 6.58296 10.9444 5.99079 10.4757 5.52208C10.007 5.05338 9.41482 4.7274 8.76809 4.58209C8.12136 4.43678 7.44667 4.47811 6.82251 4.70126L7.64551 5.52426C8.02982 5.46926 8.42166 5.50451 8.78998 5.62723C9.1583 5.74995 9.49298 5.95676 9.7675 6.23128C10.042 6.50579 10.2488 6.84047 10.3715 7.20879C10.4943 7.57711 10.5295 7.96895 10.4745 8.35326L11.2965 9.17526ZM8.35351 10.4743L9.17551 11.2963C8.55135 11.5194 7.87666 11.5607 7.22993 11.4154C6.5832 11.2701 5.99104 10.9442 5.52233 10.4754C5.05363 10.0067 4.72765 9.41457 4.58234 8.76784C4.43703 8.12112 4.47836 7.44642 4.70151 6.82226L5.52451 7.64526C5.4695 8.02957 5.50476 8.42141 5.62747 8.78973C5.75019 9.15806 5.95701 9.49273 6.23152 9.76725C6.50604 10.0418 6.84072 10.2486 7.20904 10.3713C7.57736 10.494 7.9692 10.5293 8.35351 10.4743Z" fill="#A5ABB3"/>
<path d="M3.34951 5.46926C3.16951 5.62926 2.99651 5.79126 2.83151 5.95626C2.21116 6.57995 1.65503 7.26439 1.17151 7.99926L1.36651 8.28726C1.70151 8.76726 2.19651 9.40726 2.83151 10.0423C4.12051 11.3313 5.88051 12.4993 7.99951 12.4993C8.71551 12.4993 9.38951 12.3663 10.0195 12.1393L10.7895 12.9113C9.90945 13.2958 8.95992 13.4959 7.99951 13.4993C2.99951 13.4993 -0.000488281 7.99926 -0.000488281 7.99926C-0.000488281 7.99926 0.938512 6.27826 2.64051 4.76126L3.34851 5.47026L3.34951 5.46926ZM13.6455 14.3533L1.64551 2.35326L2.35351 1.64526L14.3535 13.6453L13.6455 14.3533Z" fill="#A5ABB3"/>
</g>
<defs>
<clipPath id="clip0_395_22418">
<rect width="16" height="16" fill="white"/>
</clipPath>
</defs>
</svg>
