<svg width="24" height="25" viewBox="0 0 24 25" fill="none" xmlns="http://www.w3.org/2000/svg">
<path d="M12 13.5C13.6569 13.5 15 12.1569 15 10.5C15 8.84315 13.6569 7.5 12 7.5C10.3431 7.5 9 8.84315 9 10.5C9 12.1569 10.3431 13.5 12 13.5Z" stroke="#AAB0B2" stroke-width="2" stroke-linecap="round" stroke-linejoin="round"/>
<path d="M19.5 10.5C19.5 17.25 12 22.5 12 22.5C12 22.5 4.5 17.25 4.5 10.5C4.5 8.51088 5.29018 6.60322 6.6967 5.1967C8.10322 3.79018 10.0109 3 12 3C13.9891 3 15.8968 3.79018 17.3033 5.1967C18.7098 6.60322 19.5 8.51088 19.5 10.5V10.5Z" stroke="#AAB0B2" stroke-width="2" stroke-linecap="round" stroke-linejoin="round"/>
</svg>
