<svg width="24" height="24" viewBox="0 0 24 24" fill="none" xmlns="http://www.w3.org/2000/svg">
<path d="M20.25 7.5H3.75C3.33579 7.5 3 7.83579 3 8.25V11.25C3 11.6642 3.33579 12 3.75 12H20.25C20.6642 12 21 11.6642 21 11.25V8.25C21 7.83579 20.6642 7.5 20.25 7.5Z" stroke="#AAB0B2" stroke-width="1.7" stroke-linecap="round" stroke-linejoin="round"/>
<path d="M20 12V20.1C20 20.3387 19.9157 20.5676 19.7657 20.7364C19.6157 20.9052 19.4122 21 19.2 21H4.8C4.58783 21 4.38434 20.9052 4.23431 20.7364C4.08429 20.5676 4 20.3387 4 20.1V12" stroke="#AAB0B2" stroke-width="1.7" stroke-linecap="round" stroke-linejoin="round"/>
<path d="M12 7V21" stroke="#AAB0B2" stroke-width="1.7" stroke-linecap="round" stroke-linejoin="round"/>
<path d="M16.2469 6.44064C15.1781 7.50001 12 7.50001 12 7.50001C12 7.50001 12 4.32189 13.0594 3.25314C13.4821 2.83045 14.0554 2.59299 14.6531 2.59299C15.2509 2.59299 15.8242 2.83045 16.2469 3.25314C16.6696 3.67583 16.907 4.24912 16.907 4.84689C16.907 5.44466 16.6696 6.01795 16.2469 6.44064V6.44064Z" stroke="#AAB0B2" stroke-width="1.7" stroke-linecap="round" stroke-linejoin="round"/>
<path d="M7.75314 6.44064C8.82189 7.50001 12 7.50001 12 7.50001C12 7.50001 12 4.32189 10.9406 3.25314C10.518 2.83045 9.94466 2.59299 9.34689 2.59299C8.74912 2.59299 8.17583 2.83045 7.75314 3.25314C7.33045 3.67583 7.09299 4.24912 7.09299 4.84689C7.09299 5.44466 7.33045 6.01795 7.75314 6.44064V6.44064Z" stroke="#AAB0B2" stroke-width="1.7" stroke-linecap="round" stroke-linejoin="round"/>
</svg>
